%% CSci 562 ASMT-2 
%% https://und.edu/academics/graduate-school/academic-career-support/admitted-student-checklist.html
classDiagram
    note "und.edu/academics/graduate-school/academic-career-support/admitted-student-checklist.html
"
    class EnrollmentDatabase
    EnrollmentDatabase : +bool onlineDBAvailable
    EnrollmentDatabase ..> OnlineDBService : checks
    class OnlineDBService {
      -bool isAvailable()
    }       
    EnrollmentDatabase o-- ID
    EnrollmentDatabase o-- StudentLogin 
    EnrollmentDatabase o-- Search                
    EnrollmentDatabase o-- StudentAttributes
    EnrollmentDatabase o-- InGoodStanding
    EnrollmentDatabase o-- RegisterForClasses 
    EnrollmentDatabase : -String major
    EnrollmentDatabase : -bool isEnrolled
    EnrollmentDatabase : -int assignmentNumber
    EnrollmentDatabase : -String date
    class ID{
      -int NetID
      -int EMPLID
    }
    class StudentLogin{
      StudentCredentials()
      securityCheck()
      login()
    }
    class Search{
      search()                         %% API
    }

    class Register
    Register : +bool eligibilityOK
    Register ..> RegisterForClasses : checks
    class RegisterForClasses{
      +bool minimumStudentAttributes()
      +bool flaggedInGoodStanding()       %%      %%      %%      <<<
      +bool hasDegreePlanner
      -bool prerequisitesMet              %% 1 = met, 0 = not met
      +bool holdOnAcct                    %% 0 = there is no Hold, 1 = otherwise
      +bool needsAdvisor                  %% 1 = needed, 0 = not needed. bool hasAdvisor in class StudentAttributes
      +bool submittedImmunizationDoc
      +bool hasTitleIXcertification    
      +int  lectureClassNBR               %% 5 digits
      +int  catalogNBR                    %% 3 digits
      +int lectureSectionNBR              %% 2 digits
      +String subjectArea                 %% E.g, Finance
      +String locationCode                %% E.g, ONLINE ASYNCHRONOUS
      +int credits                        %% < 5 digits
      +String gradeOption                 %% E.g., A-F, P/NP
      -String enrollAction                %% E.g, Add
      -bool waitlist                      %% 1 = yes, = no
      -bool hasDropped                           
      -int hasRepeated                    %% single digit to denote number of class retakes
      -int UND_RO_RegistrationAction      %% 1 = pending, 2 = int process, 3 = complete-rejected, 4 = approved
      -bool emptyShoppingCart             %% 1 = yes, 0 = no
    }
    RegisterForClasses ..> StudentAttributes : reads
    RegisterForClasses ..> InGoodStanding : reads
    class StudentAttributes{              %% !!!
      -bool isCurrentStudent
      -bool hasAdvisor                    %% As oppoesed to "-needAdvisor" in class RegisterForClasses                
      -int NetID_EMPLID                   %% Either may suffice
      -bool isAthlete                             
      -bool academicCareer                %% 0 = UG, 1 = G_raduate
    }
    class InGoodStanding{                 %% !!!
      -bool tuitionStatus                 %% 1 = good, 0 = see Financial Records and Notes/summary
      -float gpa                          %% < 4 decimal places
      -bool onProbation
      -bool isDismissed                   %% if academically dismissed, dropped out, medical-leave, military duty
      -int graduationDateExpected         %% 6 digits. The software can flag a bool : "graduatateThis-semester" attr
    }
    %%class RegisterForClasses{           %% "!!!". Ie., a "CHECK" for THIS !!!!
     
    %%}    




